<svg width="120" height="32" viewBox="0 0 120 32" fill="none" xmlns="http://www.w3.org/2000/svg">
<path d="M0 31.5741V0.425856H3.98394V28.2281H19.2771V31.5741H0Z" fill="black"/>
<path d="M51.9237 16C51.9237 19.2852 51.2972 22.1242 50.0442 24.5171C48.7912 26.91 47.0723 28.7554 44.8876 30.0532C42.7028 31.3511 40.2075 32 37.4016 32C34.5957 32 32.1004 31.3511 29.9157 30.0532C27.7309 28.7554 26.012 26.91 24.759 24.5171C23.506 22.1242 22.8795 19.2852 22.8795 16C22.8795 12.7148 23.506 9.87579 24.759 7.48289C26.012 5.08999 27.7309 3.24461 29.9157 1.94677C32.1004 0.648923 34.5957 0 37.4016 0C40.2075 0 42.7028 0.648923 44.8876 1.94677C47.0723 3.24461 48.7912 5.08999 50.0442 7.48289C51.2972 9.87579 51.9237 12.7148 51.9237 16ZM48.0683 16C48.0683 13.3029 47.5917 11.0266 46.6386 9.1711C45.6961 7.31559 44.4163 5.91128 42.7992 4.95818C41.1928 4.00507 39.3936 3.52852 37.4016 3.52852C35.4096 3.52852 33.6051 4.00507 31.988 4.95818C30.3815 5.91128 29.1017 7.31559 28.1486 9.1711C27.2062 11.0266 26.7349 13.3029 26.7349 16C26.7349 18.6971 27.2062 20.9734 28.1486 22.8289C29.1017 24.6844 30.3815 26.0887 31.988 27.0418C33.6051 27.9949 35.4096 28.4715 37.4016 28.4715C39.3936 28.4715 41.1928 27.9949 42.7992 27.0418C44.4163 26.0887 45.6961 24.6844 46.6386 22.8289C47.5917 20.9734 48.0683 18.6971 48.0683 16Z" fill="black"/>
<path d="M81.1125 10.1597C80.759 9.13562 80.2932 8.218 79.7149 7.40685C79.1473 6.58555 78.4672 5.88593 77.6747 5.30799C76.8929 4.73004 76.004 4.28897 75.008 3.98479C74.012 3.68061 72.9197 3.52852 71.7309 3.52852C69.7818 3.52852 68.0094 4.00507 66.4137 4.95818C64.8179 5.91128 63.5489 7.31559 62.6064 9.1711C61.664 11.0266 61.1928 13.3029 61.1928 16C61.1928 18.6971 61.6693 20.9734 62.6225 22.8289C63.5756 24.6844 64.8661 26.0887 66.494 27.0418C68.1218 27.9949 69.9531 28.4715 71.9879 28.4715C73.8728 28.4715 75.5328 28.0913 76.9679 27.3308C78.4137 26.5602 79.5382 25.4753 80.3414 24.076C81.1553 22.6667 81.5623 21.0089 81.5623 19.1027L82.7831 19.346H72.8875V16H85.4177V19.346C85.4177 21.9113 84.8394 24.142 83.6827 26.038C82.5368 27.9341 80.9518 29.4043 78.9277 30.4487C76.9143 31.4829 74.6011 32 71.9879 32C69.075 32 66.5154 31.3511 64.3092 30.0532C62.1138 28.7554 60.4003 26.91 59.1687 24.5171C57.9478 22.1242 57.3373 19.2852 57.3373 16C57.3373 13.5361 57.6854 11.3207 58.3815 9.35361C59.0884 7.37643 60.0843 5.69328 61.3695 4.30418C62.6546 2.91508 64.1754 1.85044 65.9317 1.11027C67.6881 0.370089 69.6211 0 71.7309 0C73.4659 0 75.083 0.248416 76.5823 0.745247C78.0924 1.23194 79.4364 1.92649 80.6145 2.8289C81.8032 3.72117 82.7938 4.79087 83.5863 6.03802C84.3788 7.27503 84.925 8.64892 85.2249 10.1597H81.1125Z" fill="black"/>
<path d="M120 16C120 19.2852 119.373 22.1242 118.12 24.5171C116.867 26.91 115.149 28.7554 112.964 30.0532C110.779 31.3511 108.284 32 105.478 32C102.672 32 100.177 31.3511 97.992 30.0532C95.8072 28.7554 94.0884 26.91 92.8353 24.5171C91.5823 22.1242 90.9558 19.2852 90.9558 16C90.9558 12.7148 91.5823 9.87579 92.8353 7.48289C94.0884 5.08999 95.8072 3.24461 97.992 1.94677C100.177 0.648923 102.672 0 105.478 0C108.284 0 110.779 0.648923 112.964 1.94677C115.149 3.24461 116.867 5.08999 118.12 7.48289C119.373 9.87579 120 12.7148 120 16ZM116.145 16C116.145 13.3029 115.668 11.0266 114.715 9.1711C113.772 7.31559 112.493 5.91128 110.876 4.95818C109.269 4.00507 107.47 3.52852 105.478 3.52852C103.486 3.52852 101.681 4.00507 100.064 4.95818C98.4578 5.91128 97.178 7.31559 96.2249 9.1711C95.2825 11.0266 94.8112 13.3029 94.8112 16C94.8112 18.6971 95.2825 20.9734 96.2249 22.8289C97.178 24.6844 98.4578 26.0887 100.064 27.0418C101.681 27.9949 103.486 28.4715 105.478 28.4715C107.47 28.4715 109.269 27.9949 110.876 27.0418C112.493 26.0887 113.772 24.6844 114.715 22.8289C115.668 20.9734 116.145 18.6971 116.145 16Z" fill="black"/>
</svg>
